<svg width="100" height="62" viewBox="0 0 100 62" fill="none" xmlns="http://www.w3.org/2000/svg">
<path d="M95 5V57H5V5H95ZM100 0H0V62H100V0Z" fill="black"/>
<path d="M11.536 35V12.6H15.92V31.288H22.576V35H11.536ZM31.9868 22.008H29.5868C29.2668 22.392 29.0001 22.9253 28.7868 23.608C28.5948 24.2907 28.4988 24.952 28.4988 25.592H33.0748C33.1174 24.952 33.0321 24.2907 32.8188 23.608C32.6054 22.904 32.3281 22.3707 31.9868 22.008ZM36.3388 31.64V35H28.2108C26.7174 33.9973 25.6614 32.76 25.0428 31.288C24.4454 29.7947 24.1468 28.2907 24.1468 26.776C24.1468 23.2773 25.4694 20.568 28.1148 18.648H33.2988C34.7281 19.6933 35.6988 20.8027 36.2108 21.976C36.7228 23.1493 36.9788 24.3333 36.9788 25.528C36.9788 26.7227 36.8828 27.7467 36.6908 28.6H28.7228C28.7868 29.0907 28.9681 29.656 29.2668 30.296C29.5868 30.9147 29.9281 31.3627 30.2908 31.64H36.3388ZM43.094 26.68C43.094 27.576 43.2327 28.4933 43.51 29.432C43.7873 30.3493 44.1713 31.0853 44.662 31.64H49.462V35H42.454C39.9367 32.9947 38.678 30.2213 38.678 26.68C38.678 23.1387 40.022 20.4613 42.71 18.648H49.462V22.008H44.662C43.6167 23.096 43.094 24.6533 43.094 26.68Z" fill="black"/>
<path d="M59.336 44.864V39.008H57.128V35.648H59.336V31.2H63.592V35.648H66.216V39.008H63.592V45.888C63.592 47.1893 63.816 48.1067 64.264 48.64H66.216V52H61.672C60.5413 50.9547 59.8587 49.824 59.624 48.608C59.432 47.584 59.336 46.336 59.336 44.864ZM68.3448 52V35.648H72.5688V52H68.3448ZM68.3448 29.6H72.5688V33.92H68.3448V29.6ZM85.0415 52H78.0655C75.9322 50.016 74.8655 47.3067 74.8655 43.872C74.8655 42.144 75.1002 40.64 75.5695 39.36C76.0602 38.08 76.8282 36.8427 77.8735 35.648H85.3615C86.4708 36.928 87.2282 38.176 87.6335 39.392C88.0388 40.5867 88.2415 42.08 88.2415 43.872C88.2415 47.3067 87.1748 50.016 85.0415 52ZM80.3375 48.64H82.7695C83.5375 47.1467 83.9215 45.4507 83.9215 43.552C83.9215 41.6533 83.5268 40.1387 82.7375 39.008H80.3375C79.5695 40.096 79.1855 41.6427 79.1855 43.648C79.1855 45.632 79.5695 47.296 80.3375 48.64Z" fill="black"/>
</svg>
